:SAMPLES-PER-SECOND 25
:FULLY-SPECIFIED
:DEGREES
467
root  6.79435 46.1747 -55.8198 23.485 16.3447 -22.2973
RightUpLeg  -83.1282 -1.71792 6.07787
RightLeg  127.266 -34.4895 35.1112
RightFoot  -7.69708 -0.630545 18.0549
RightToes  2.84633e-005 7.89722e-005 -0.000426369
Spine  7.74769 4.80737 0.252206
Spine1  16.5307 10.5512 7.69414
HEad  30.6466 -18.6197 -6.37397
LeftShoulder1  -3.88251e-019 0 -3.92111e-022
LeftArm  -19.6764 -30.3103 -71.3256
LeftForeArm  58.125 -5.93892 -11.1464
LeftHand  -1.67207 2.31597 58.6941
RightShoulder  7.45443e-017 -2.42657e-020 1.96277e-018
RightArm  -25.106 36.9513 37.3052
RightForeArm  -10.7443 12.427 1.58658
RightHand  -5.14742 19.2713 -24.1936
LeftUpLeg  -33.1537 18.5944 23.134
LeftLeg  21.895 5.63955 3.13089
LeftFoot  31.1102 4.26802 -11.4789
LeftToes  3.91355e-005 3.11907e-005 -4.10385e-006
468
root  6.44239 46.6981 -55.595 24.505 16.6076 -21.0501
RightUpLeg  -84.0079 -0.252 8.35358
RightLeg  129.161 -29.7869 30.059
RightFoot  -10.4376 -0.190011 14.2181
RightToes  2.84633e-005 7.89722e-005 -0.000426369
Spine  8.22455 5.24995 -0.924264
Spine1  17.4243 11.7623 5.52122
HEad  29.5547 -19.0297 -7.95065
LeftShoulder1  -3.88251e-019 0 -3.92111e-022
LeftArm  -20.1011 -32.5267 -70.4399
LeftForeArm  59.2474 -5.53527 -9.54073
LeftHand  -2.02383 1.75734 59.8393
RightShoulder  7.45443e-017 -2.42657e-020 1.96277e-018
RightArm  -26.6999 36.1409 34.8128
RightForeArm  -12.4757 8.79898 -0.453257
RightHand  -6.09484 19.125 -28.5999
LeftUpLeg  -36.5703 20.7819 20.0469
LeftLeg  25.0658 8.75561 4.78091
LeftFoot  28.9567 3.56783 -10.199
LeftToes  3.91355e-005 3.11907e-005 -4.10385e-006
469
root  6.09242 46.9758 -55.2043 25.7399 16.0642 -19.3496
RightUpLeg  -84.2366 0.481159 9.05015
RightLeg  131.826 -23.8832 23.3646
RightFoot  -12.088 -0.0125535 10.2671
RightToes  2.84633e-005 7.89722e-005 -0.000426369
Spine  8.37546 5.66103 -2.44217
Spine1  17.5264 12.8414 2.26543
HEad  27.4243 -17.8875 -11.3844
LeftShoulder1  -3.88251e-019 0 -3.92111e-022
LeftArm  -19.4803 -33.3428 -69.0195
LeftForeArm  59.2864 -6.17005 -7.59812
LeftHand  -2.31583 1.08694 57.923
RightShoulder  7.45443e-017 -2.42657e-020 1.96277e-018
RightArm  -29.3055 33.9173 30.3853
RightForeArm  -16.025 6.40727 -1.81771
RightHand  -7.48448 19.3774 -34.261
LeftUpLeg  -40.734 22.9598 15.6253
LeftLeg  31.2304 11.4848 7.84024
LeftFoot  22.8947 2.3612 -8.11972
LeftToes  3.91355e-005 3.11907e-005 -4.10385e-006
470
root  5.8154 47.2517 -54.7322 27.3927 14.3237 -18.3621
RightUpLeg  -84.7652 2.20636 9.8404
RightLeg  133.504 -17.9735 17.3875
RightFoot  -12.3641 -0.0275985 6.19664
RightToes  2.84633e-005 7.89722e-005 -0.000426369
Spine  8.02721 6.09613 -3.86454
Spine1  16.5823 13.9674 -1.03547
HEad  25.566 -16.3673 -15.9138
LeftShoulder1  -3.88251e-019 0 -3.92111e-022
LeftArm  -19.2696 -33.4333 -65.849
LeftForeArm  58.7422 -6.25525 -7.14418
LeftHand  -2.29868 1.0845 57.5361
RightShoulder  7.45443e-017 -2.42657e-020 1.96277e-018
RightArm  -31.6002 30.4186 24.6062
RightForeArm  -18.5888 5.8673 -3.43178
RightHand  -8.74287 19.3998 -39.6007
LeftUpLeg  -44.1072 24.6747 11.7989
LeftLeg  35.8265 13.7919 10.8435
LeftFoot  13.2631 1.29369 -6.33161
LeftToes  3.91355e-005 3.11907e-005 -4.10385e-006
471
root  5.56694 47.6071 -54.2097 28.31 12.4464 -17.953
RightUpLeg  -84.4959 3.32381 12.2475
RightLeg  133.356 -14.2284 14.1822
RightFoot  -12.0271 -0.0520931 4.93428
RightToes  2.84633e-005 7.89722e-005 -0.000426369
Spine  7.87047 6.25244 -5.05027
Spine1  16.0062 14.4273 -3.88946
HEad  24.2134 -14.9284 -20.338
LeftShoulder1  -3.88251e-019 0 -3.92111e-022
LeftArm  -20.4341 -33.191 -61.4844
LeftForeArm  57.991 -6.3167 -7.11827
LeftHand  -2.42583 0.734893 56.322
RightShoulder  7.45443e-017 -2.42657e-020 1.96277e-018
RightArm  -33.673 26.4774 18.6511
RightForeArm  -16.3108 7.60028 -3.04327
RightHand  -9.6841 19.9735 -42.556
LeftUpLeg  -45.6446 25.7146 9.36993
LeftLeg  38.234 16.4983 13.8667
LeftFoot  3.59954 0.36744 -2.969
LeftToes  3.91355e-005 3.11907e-005 -4.10385e-006
472
root  5.29729 47.9662 -53.7186 28.225 11.193 -18.266
RightUpLeg  -82.7299 4.02687 16.8493
RightLeg  132.685 -11.9787 12.4005
RightFoot  -11.5323 -0.0726603 3.32525
RightToes  2.84633e-005 7.89722e-005 -0.000426369
Spine  7.91419 6.24742 -5.93563
Spine1  15.8556 14.4307 -6.11393
HEad  23.2435 -13.4599 -22.817
LeftShoulder1  -3.88251e-019 0 -3.92111e-022
LeftArm  -19.9859 -32.0623 -57.1384
LeftForeArm  56.503 -7.34413 -6.89511
LeftHand  -2.3295 0.774723 54.8082
RightShoulder  7.45443e-017 -2.42657e-020 1.96277e-018
RightArm  -36.0057 21.3163 16.2847
RightForeArm  -10.1224 12.6213 -1.31
RightHand  -9.89055 20.8243 -42.0884
LeftUpLeg  -46.4232 26.6426 8.46285
LeftLeg  41.3655 18.3733 16.9257
LeftFoot  -0.123829 -0.0705576 0.68067
LeftToes  3.91355e-005 3.11907e-005 -4.10385e-006
473
root  4.94302 48.3476 -53.2811 28.0391 10.3805 -18.79
RightUpLeg  -80.5502 5.29152 21.1499
RightLeg  132.041 -9.4055 10.1575
RightFoot  -11.2812 -0.0826376 5.62498
RightToes  2.84633e-005 7.89722e-005 -0.000426369
Spine  8.10675 5.73585 -5.85724
Spine1  16.1665 13.2603 -6.50848
HEad  22.1232 -12.1761 -25.603
LeftShoulder1  -3.88251e-019 0 -3.92111e-022
LeftArm  -23.6953 -30.3895 -52.6683
LeftForeArm  56.8907 -7.37982 -8.44602
LeftHand  -2.12898 1.13216 54.4192
RightShoulder  7.45443e-017 -2.42657e-020 1.96277e-018
RightArm  -38.9653 17.7043 16.1812
RightForeArm  -3.97131 17.9229 1.47354
RightHand  -9.3796 20.9925 -39.8543
LeftUpLeg  -47.0511 27.5833 8.10899
LeftLeg  44.0699 18.536 18.6231
LeftFoot  -2.63875 -0.141168 2.06271
LeftToes  3.91355e-005 3.11907e-005 -4.10385e-006
474
root  4.52483 48.7562 -52.9988 28.0632 10.7725 -18.5479
RightUpLeg  -79.1093 5.75879 23.3892
RightLeg  130.796 -7.91995 9.04214
RightFoot  -10.7684 -0.109346 7.44661
RightToes  2.84633e-005 7.89722e-005 -0.000426369
Spine  8.47372 5.48057 -6.20493
Spine1  16.8115 12.7503 -7.49532
HEad  21.1273 -13.3641 -25.0526
LeftShoulder1  -3.88251e-019 0 -3.92111e-022
LeftArm  -24.466 -30.5216 -50.2858
LeftForeArm  56.159 -7.93235 -8.00239
LeftHand  -2.1961 0.984094 54.2502
RightShoulder  7.45443e-017 -2.42657e-020 1.96277e-018
RightArm  -41.6949 13.18 18.9407
RightForeArm  -1.69143 21.7974 4.22171
RightHand  -9.19388 20.8579 -39.3251
LeftUpLeg  -48.0715 27.8025 6.98977
LeftLeg  45.8944 19.0046 20.1732
LeftFoot  -3.22125 -0.257393 3.87529
LeftToes  3.91355e-005 3.11907e-005 -4.10385e-006
475
root  4.02981 49.1563 -52.8687 28.0775 12.3424 -17.6049
RightUpLeg  -78.3487 5.97391 24.1755
RightLeg  129.741 -6.06913 7.34539
RightFoot  -10.9925 -0.0928045 5.67507
RightToes  2.84633e-005 7.89722e-005 -0.000426369
Spine  9.20372 5.13913 -6.37212
Spine1  18.2532 12.1557 -7.79529
HEad  19.4895 -16.047 -24.6083
LeftShoulder1  -3.88251e-019 0 -3.92111e-022
LeftArm  -24.9534 -32.1033 -49.1909
LeftForeArm  55.2483 -7.97504 -6.92206
LeftHand  -2.37218 0.586434 53.7668
RightShoulder  7.45443e-017 -2.42657e-020 1.96277e-018
RightArm  -41.587 9.21324 22.2813
RightForeArm  -1.25491 23.8277 5.1527
RightHand  -9.19048 21.0823 -39.0064
LeftUpLeg  -49.1839 28.0292 5.09907
LeftLeg  45.9399 19.2666 20.4429
LeftFoot  -3.56334 -0.226841 3.64437
LeftToes  3.91355e-005 3.11907e-005 -4.10385e-006
476
root  3.46922 49.5037 -52.8273 28.4218 14.8871 -16.318
RightUpLeg  -78.3874 5.90159 24.4831
RightLeg  128.765 -5.05991 6.4411
RightFoot  -10.4515 -0.101932 3.98781
RightToes  2.84633e-005 7.89722e-005 -0.000426369
Spine  10.1526 5.16772 -6.68726
Spine1  20.1176 12.389 -8.28161
HEad  17.9419 -20.1941 -22.2674
LeftShoulder1  -3.88251e-019 0 -3.92111e-022
LeftArm  -21.3044 -35.3641 -49.8376
LeftForeArm  52.7976 -8.81843 -4.2487
LeftHand  -2.65487 -0.0506933 53.1608
RightShoulder  7.45443e-017 -2.42657e-020 1.96277e-018
RightArm  -40.9328 5.43901 26.263
RightForeArm  -4.04474 24.1264 5.365
RightHand  -8.47423 20.4996 -36.9495
LeftUpLeg  -50.3543 27.7263 3.29446
LeftLeg  44.7408 19.55 19.9277
LeftFoot  -3.96068 -0.189874 3.31378
LeftToes  3.91355e-005 3.11907e-005 -4.10385e-006
477
root  2.89795 49.7545 -52.8017 29.2637 17.8445 -14.8001
RightUpLeg  -78.9709 6.47617 24.1835
RightLeg  128.064 -3.42774 4.67761
RightFoot  -10.538 -0.095724 3.46633
RightToes  2.84633e-005 7.89722e-005 -0.000426369
Spine  10.7975 4.35758 -5.89242
Spine1  21.5358 10.7929 -6.63844
HEad  16.7555 -22.9613 -22.924
LeftShoulder1  -3.88251e-019 0 -3.92111e-022
LeftArm  -23.9946 -37.1423 -49.2389
LeftForeArm  53.1978 -8.11886 -4.85283
LeftHand  -2.87652 -0.541045 52.8471
RightShoulder  7.45443e-017 -2.42657e-020 1.96277e-018
RightArm  -38.9919 4.38685 28.6032
RightForeArm  -6.08145 23.4697 5.30662
RightHand  -7.82395 20.0732 -34.8473
LeftUpLeg  -51.1122 25.5501 2.70448
LeftLeg  43.0668 19.5501 18.8905
LeftFoot  -3.68425 -0.16015 2.70262
LeftToes  3.91355e-005 3.11907e-005 -4.10385e-006
478
root  2.28951 49.8309 -52.7625 30.184 20.738 -12.9953
RightUpLeg  -79.4107 7.5156 23.2907
RightLeg  127.956 -3.04141 4.23262
RightFoot  -10.9275 -0.0880517 3.76836
RightToes  2.84633e-005 7.89722e-005 -0.000426369
Spine  11.5451 3.76314 -5.04714
Spine1  23.1506 9.54258 -4.90713
HEad  15.3423 -26.4768 -22.776
LeftShoulder1  -3.88251e-019 0 -3.92111e-022
LeftArm  -25.7565 -39.2057 -49.2905
LeftForeArm  52.9617 -7.92754 -5.25689
LeftHand  -3.02713 -0.850752 52.8283
RightShoulder  7.45443e-017 -2.42657e-020 1.96277e-018
RightArm  -38.3036 3.21558 30.6524
RightForeArm  -8.67566 23.5028 5.43574
RightHand  -7.45876 20.3392 -33.0033
LeftUpLeg  -51.8609 22.9125 2.82859
LeftLeg  42.7642 18.9345 18.191
LeftFoot  -3.95093 -0.151694 2.56366
LeftToes  3.91355e-005 3.11907e-005 -4.10385e-006
479
root  1.68817 49.8339 -52.7053 30.7257 23.1094 -11.4889
RightUpLeg  -79.4652 7.57168 23.1419
RightLeg  128.615 -2.75377 3.81408
RightFoot  -10.76 -0.0905079 3.48141
RightToes  2.84633e-005 7.89722e-005 -0.000426369
Spine  12.2067 3.14195 -4.06916
Spine1  24.5806 8.12239 -3.00725
HEad  13.5048 -28.7081 -22.5614
LeftShoulder1  -3.88251e-019 0 -3.92111e-022
LeftArm  -27.4961 -39.6018 -48.886
LeftForeArm  52.4315 -7.92752 -6.27216
LeftHand  -3.10678 -1.35607 50.5158
RightShoulder  7.45443e-017 -2.42657e-020 1.96277e-018
RightArm  -36.772 3.5283 32.2349
RightForeArm  -11.5239 23.745 5.63973
RightHand  -7.61887 20.7843 -33.1242
LeftUpLeg  -52.4465 21.9513 2.87825
LeftLeg  43.7421 19.0111 18.8421
LeftFoot  -3.87215 -0.197786 3.34471
LeftToes  3.91355e-005 3.11907e-005 -4.10385e-006
